<svg xmlns="http://www.w3.org/2000/svg" width="28.676" height="28.676" viewBox="0 0 28.676 28.676">
  <g id="Group_67457" data-name="Group 67457" transform="translate(-321.662 -50.662)">
    <path id="Path_57821" data-name="Path 57821" d="M8.28,4.429a.534.534,0,1,1-.955.477L6.258,2.772a.534.534,0,1,1,.955-.477ZM5.746,19.556a2.026,2.026,0,0,0,2.825.04l1.786,1.786a3.095,3.095,0,0,0,4.923-.74l1.494-2.82,3.153-3.164a6.583,6.583,0,0,0,1.251-7.539l.353-.353a2.134,2.134,0,0,0-3.019-3.018l-.353.353a6.573,6.573,0,0,0-7.532,1.259L7.482,8.5l-2.839,1.53a3.095,3.095,0,0,0-.72,4.913l1.761,1.761A2.059,2.059,0,0,0,5.746,19.556Zm.694-2.091L7.816,18.84A.959.959,0,0,1,6.5,18.8.992.992,0,0,1,6.44,17.464ZM20.613,6.173l.164-.164A1.067,1.067,0,1,0,19.267,4.5l-.164.164a6.651,6.651,0,0,1,1.509,1.509ZM8.181,9.314l3.2-3.2A5.508,5.508,0,0,1,19.171,13.9l-3.209,3.22-.094.127-1.531,2.891a2.028,2.028,0,0,1-3.226.485L4.678,14.192a2.028,2.028,0,0,1,.472-3.219L8.057,9.407ZM6.145,7.041a.534.534,0,0,0-.239-.716L3.772,5.258a.534.534,0,0,0-.477.955L5.429,7.28A.534.534,0,0,0,6.145,7.041ZM19.3,19.019a.534.534,0,1,1,.477-.955l2.134,1.067a.534.534,0,0,1-.477.955ZM17.169,20.2a.534.534,0,0,0-.239.716L18,23.049a.534.534,0,1,0,.955-.477l-1.067-2.134A.534.534,0,0,0,17.169,20.2Z" transform="translate(318.127 64.953) rotate(-45)" fill-rule="evenodd"/>
    <g id="Ellipse_74" data-name="Ellipse 74" transform="translate(339 54)" fill="#2196f3" stroke="#fff" stroke-width="1.5">
      <circle cx="4" cy="4" r="4" stroke="none"/>
      <circle cx="4" cy="4" r="3.25" fill="none"/>
    </g>
  </g>
</svg>
