<svg xmlns="http://www.w3.org/2000/svg" xmlns:xlink="http://www.w3.org/1999/xlink" width="52" height="50" viewBox="0 0 52 50">
  <defs>
    <filter id="Path_57820" x="0" y="0" width="52" height="50" filterUnits="userSpaceOnUse">
      <feOffset dy="3" input="SourceAlpha"/>
      <feGaussianBlur stdDeviation="5" result="blur"/>
      <feFlood flood-opacity="0.561"/>
      <feComposite operator="in" in2="blur"/>
      <feComposite in="SourceGraphic"/>
    </filter>
  </defs>
  <g transform="matrix(1, 0, 0, 1, 0, 0)" filter="url(#Path_57820)">
    <path id="Path_57820-2" data-name="Path 57820" d="M1,19.5V7.5A2.5,2.5,0,0,1,3.5,5H5.43a1.5,1.5,0,0,0,1.248-.668L7.49,3.113A2.5,2.5,0,0,1,9.57,2H14.43a2.5,2.5,0,0,1,2.08,1.113l.813,1.219A1.5,1.5,0,0,0,18.57,5H20.5A2.5,2.5,0,0,1,23,7.5v12A2.5,2.5,0,0,1,20.5,22H3.5A2.5,2.5,0,0,1,1,19.5Zm1,0A1.5,1.5,0,0,0,3.5,21h17A1.5,1.5,0,0,0,22,19.5V7.5A1.5,1.5,0,0,0,20.5,6H18.57a2.5,2.5,0,0,1-2.08-1.113l-.812-1.219A1.5,1.5,0,0,0,14.43,3H9.57a1.5,1.5,0,0,0-1.248.668L7.51,4.887A2.5,2.5,0,0,1,5.43,6H3.5A1.5,1.5,0,0,0,2,7.5ZM6,13a6,6,0,1,0,6-6A6,6,0,0,0,6,13Zm6,5a5,5,0,1,0-5-5A5,5,0,0,0,12,18ZM20,7H19a1,1,0,0,0-1,1V9a1,1,0,0,0,1,1h1a1,1,0,0,0,1-1V8A1,1,0,0,0,20,7ZM19,8V9h1V8ZM2,3.5a.5.5,0,0,0,.5.5h2a.5.5,0,0,0,0-1h-2A.5.5,0,0,0,2,3.5Z" transform="translate(14 10)" fill="#fff" fill-rule="evenodd"/>
  </g>
</svg>
