<svg xmlns="http://www.w3.org/2000/svg" width="16.729" height="16.729" viewBox="0 0 16.729 16.729">
  <path id="Path_57798" data-name="Path 57798" d="M10.364,18.729a8.364,8.364,0,1,1,8.364-8.364A8.364,8.364,0,0,1,10.364,18.729Zm1.646-6.963a.418.418,0,0,1-.245.245L7.592,13.68a.418.418,0,0,1-.544-.544L8.718,8.963a.418.418,0,0,1,.245-.245l4.174-1.669a.418.418,0,0,1,.544.544Zm-2.157-2.5,1.612,1.612,1.075-2.687Zm-.591.591,1.612,1.612L8.188,12.541Zm8.63.51a7.528,7.528,0,1,1-7.528-7.528A7.528,7.528,0,0,1,17.892,10.364Z" transform="translate(-2 -2)" fill-rule="evenodd"/>
</svg>
