<svg xmlns="http://www.w3.org/2000/svg" width="12.431" height="12.292" viewBox="0 0 12.431 12.292">
  <g id="Group_67302" data-name="Group 67302" transform="translate(-0.706 -0.958)">
    <path id="Path_57592" data-name="Path 57592" d="M14.189,11.6h0l-3.8-3.661h0l-.861-.819,4.661-4.48a.986.986,0,0,0,.227-.313.916.916,0,0,0,.079-.362.791.791,0,0,0-.08-.372.975.975,0,0,0-.207-.312h0a1.169,1.169,0,0,0-.324-.207,1.055,1.055,0,0,0-.384-.067,1.105,1.105,0,0,0-.383.075h0a1,1,0,0,0-.316.208l.027.028L12.8,1.292,7.434,6.447a.937.937,0,0,0-.208.3h0a1,1,0,0,0-.079.37.916.916,0,0,0,.079.362.937.937,0,0,0,.208.3L12.8,12.942h0a1.016,1.016,0,0,0,.69.256.992.992,0,0,0,.681-.275.927.927,0,0,0,.02-1.322Z" transform="translate(-1.407 0)" fill="#fff" stroke="#fff" stroke-width="0.1"/>
    <path id="Path_57593" data-name="Path 57593" d="M1.061,2.6h0l3.8,3.661h0l.861.819-4.661,4.48a.984.984,0,0,0-.227.313.915.915,0,0,0-.079.362.791.791,0,0,0,.08.372.974.974,0,0,0,.207.312h0a1.171,1.171,0,0,0,.324.207,1.056,1.056,0,0,0,.384.067,1.106,1.106,0,0,0,.383-.075h0a1,1,0,0,0,.316-.208l-.027-.028.027.028L7.815,7.76a.936.936,0,0,0,.208-.3h0a1,1,0,0,0,.079-.37.916.916,0,0,0-.079-.362.936.936,0,0,0-.208-.3L2.452,1.264h0a1.016,1.016,0,0,0-.69-.256.992.992,0,0,0-.681.275.9.9,0,0,0-.287.656A.9.9,0,0,0,1.061,2.6Z" fill="#fff" stroke="#fff" stroke-width="0.1"/>
  </g>
</svg>
