<svg id="Group_67439" data-name="Group 67439" xmlns="http://www.w3.org/2000/svg" width="16" height="12.176" viewBox="0 0 16 12.176">
  <g id="Group_26" data-name="Group 26">
    <path id="Path_2061" data-name="Path 2061" d="M14.047,57.75H1.957A1.958,1.958,0,0,0,0,59.707V67.97a1.958,1.958,0,0,0,1.957,1.957H14.043A1.958,1.958,0,0,0,16,67.97V59.71A1.956,1.956,0,0,0,14.047,57.75Zm1.063,10.22a1.064,1.064,0,0,1-1.063,1.063H1.957A1.064,1.064,0,0,1,.894,67.97V59.71a1.064,1.064,0,0,1,1.063-1.063H14.043a1.064,1.064,0,0,1,1.063,1.063v8.26Z" transform="translate(0 -57.75)" fill="#1a1a1a"/>
    <path id="Path_2062" data-name="Path 2062" d="M62.761,112.368l3.326-2.833a.35.35,0,0,0,.028-.511.4.4,0,0,0-.537-.027l-4.587,3.91-.895-.759s-.006-.005-.006-.008a.556.556,0,0,0-.062-.051l-3.641-3.1a.394.394,0,0,0-.537.029.348.348,0,0,0,.031.511l3.366,2.857-3.352,2.98a.35.35,0,0,0-.017.511.4.4,0,0,0,.279.115.392.392,0,0,0,.259-.1l3.4-3.023.923.783a.394.394,0,0,0,.507,0l.948-.807,3.382,3.052a.4.4,0,0,0,.537-.013.35.35,0,0,0-.014-.511Z" transform="translate(-52.982 -106.361)" fill="#1a1a1a"/>
  </g>
</svg>
