<svg xmlns="http://www.w3.org/2000/svg" width="14" height="16" viewBox="0 0 14 16">
  <g id="Group_30" data-name="Group 30" transform="translate(-245.5 -244)">
    <g id="Group_29" data-name="Group 29" transform="translate(245.5 244)">
      <g id="Group_28" data-name="Group 28">
        <path id="Path_2063" data-name="Path 2063" d="M258.875,258.125a.625.625,0,0,0,.625-.625v-5.125a2.5,2.5,0,0,0-2.5-2.5h-.751v-2.2a3.751,3.751,0,0,0-7.5,0v2.2H248a2.5,2.5,0,0,0-2.5,2.5V257.5A2.5,2.5,0,0,0,248,260h9a2.5,2.5,0,0,0,2.5-2.5.625.625,0,0,0-1.25,0,1.251,1.251,0,0,1-1.25,1.25h-9a1.251,1.251,0,0,1-1.25-1.25v-5.125a1.251,1.251,0,0,1,1.25-1.25h9a1.251,1.251,0,0,1,1.25,1.25V257.5A.625.625,0,0,0,258.875,258.125ZM255,249.875h-5v-2.2a2.5,2.5,0,0,1,5,0Z" transform="translate(-245.5 -244)" fill="#1a1a1a"/>
        <circle id="Ellipse_2" data-name="Ellipse 2" cx="0.938" cy="0.938" r="0.938" transform="translate(6.062 9.756)" fill="#1a1a1a"/>
        <circle id="Ellipse_3" data-name="Ellipse 3" cx="0.937" cy="0.937" r="0.937" transform="translate(3.442 9.756)" fill="#1a1a1a"/>
        <circle id="Ellipse_4" data-name="Ellipse 4" cx="0.938" cy="0.938" r="0.938" transform="translate(8.683 9.756)" fill="#1a1a1a"/>
      </g>
    </g>
  </g>
</svg>
