<svg xmlns="http://www.w3.org/2000/svg" xmlns:xlink="http://www.w3.org/1999/xlink" width="107.297" height="99.118" viewBox="0 0 107.297 99.118">
  <defs>
    <linearGradient id="linear-gradient" x1="0.5" x2="0.5" y2="1" gradientUnits="objectBoundingBox">
      <stop offset="0" stop-color="#d3d5d1"/>
      <stop offset="1" stop-color="#5d818b"/>
    </linearGradient>
  </defs>
  <g id="Group_67234" data-name="Group 67234" transform="translate(-117.442 -340.547)">
    <path id="M" d="M70.376,790.7l8.614,8.579V843.9H70.376Zm15.505,15.275,8.614,8.561V843.9H85.881ZM70.376,786.414l6.031-6.006,43.069,42.9,33.595-32.6-10.337-10.3,34.455-7.721L168.576,807l-10.337-10.3-38.763,38.607Zm84.417,18.875,6.03,6.005L128.09,843.9l-6.03-6.005Zm-63.744-26.6H78.99l37.9,37.749,6.03-6.005Z" transform="translate(47.549 -432.14)" fill-rule="evenodd" fill="url(#linear-gradient)"/>
    <path id="MISSION" d="M632.538,1047.8l1.5-11.032,5.477,11.032h.391l5.413-10.949,1.513,10.949h1.5l-2.2-15.309h-.245l-6.164,12.562-6.224-12.562h-.249L631.06,1047.8h1.478Zm22.85,0h1.53v-15.309h-1.53Zm9.81-.359a4.508,4.508,0,0,0,2.529.744,4.249,4.249,0,0,0,3.076-1.228,3.9,3.9,0,0,0,1.264-2.893,4.206,4.206,0,0,0-.739-2.3,11.165,11.165,0,0,0-2.726-2.612q-1.677-1.239-1.977-1.53a3.563,3.563,0,0,1-.76-1.02,2.343,2.343,0,0,1-.208-.968,1.838,1.838,0,0,1,.588-1.384,2.1,2.1,0,0,1,1.514-.562,2.54,2.54,0,0,1,1.327.364,6,6,0,0,1,1.473,1.509l1.249-.947a6.941,6.941,0,0,0-1.993-1.972,4.025,4.025,0,0,0-2.024-.536,3.884,3.884,0,0,0-1.889.473,3.407,3.407,0,0,0-1.348,1.3,3.551,3.551,0,0,0-.479,1.821,3.825,3.825,0,0,0,.812,2.342,13.4,13.4,0,0,0,2.383,2.092,12.468,12.468,0,0,1,2.622,2.456,2.6,2.6,0,0,1,.521,1.509,2.488,2.488,0,0,1-.354,1.28,2.532,2.532,0,0,1-1.031.962,3.039,3.039,0,0,1-1.446.359q-1.8,0-3.175-2.529l-1.3.78A6.814,6.814,0,0,0,665.2,1047.443Zm14.878,0a4.511,4.511,0,0,0,2.53.744,4.248,4.248,0,0,0,3.075-1.228,3.9,3.9,0,0,0,1.265-2.893,4.211,4.211,0,0,0-.738-2.3,11.151,11.151,0,0,0-2.727-2.612q-1.676-1.239-1.977-1.53a3.56,3.56,0,0,1-.76-1.02,2.361,2.361,0,0,1-.208-.968,1.837,1.837,0,0,1,.588-1.384,2.1,2.1,0,0,1,1.514-.563,2.538,2.538,0,0,1,1.327.364,5.97,5.97,0,0,1,1.473,1.509l1.249-.947a6.923,6.923,0,0,0-1.993-1.972,4.025,4.025,0,0,0-2.024-.536,3.888,3.888,0,0,0-1.889.473,3.406,3.406,0,0,0-1.348,1.3,3.559,3.559,0,0,0-.479,1.821,3.825,3.825,0,0,0,.812,2.342,13.4,13.4,0,0,0,2.384,2.092,12.491,12.491,0,0,1,2.623,2.456,2.594,2.594,0,0,1,.52,1.509,2.489,2.489,0,0,1-.354,1.28,2.528,2.528,0,0,1-1.03.962,3.039,3.039,0,0,1-1.447.359q-1.8,0-3.174-2.529l-1.3.78A6.8,6.8,0,0,0,680.077,1047.443Zm14.15.359h1.53v-15.309h-1.53Zm12.6-14.628a7.768,7.768,0,0,0-2.91,2.951,8.153,8.153,0,0,0-1.068,4.09,7.663,7.663,0,0,0,2.343,5.641,7.84,7.84,0,0,0,5.749,2.331,8.071,8.071,0,0,0,5.7-13.758,7.946,7.946,0,0,0-5.821-2.321A7.831,7.831,0,0,0,706.828,1033.175Zm7.33,1.307a6.347,6.347,0,0,1,2.392,2.359,6.482,6.482,0,0,1,.85,3.3,6.642,6.642,0,0,1-.85,3.333,6.177,6.177,0,0,1-2.366,2.364,6.548,6.548,0,0,1-3.3.865,6.438,6.438,0,0,1-6.453-6.489,6.633,6.633,0,0,1,.855-3.343,6.447,6.447,0,0,1,8.871-2.385Zm13.749,13.321V1036.21l10.105,11.593h.344v-15.309h-1.509v11.735l-10.189-11.735h-.334V1047.8Z" transform="translate(-513.618 -608.523)" fill="#d1d3d0" fill-rule="evenodd"/>
  </g>
</svg>
