<svg xmlns="http://www.w3.org/2000/svg" width="24" height="24" viewBox="0 0 24 24">
  <g id="Group_67745" data-name="Group 67745" transform="translate(-17 -506)">
    <g id="Group_67744" data-name="Group 67744">
      <g id="Group_67742" data-name="Group 67742">
        <g id="Group_67741" data-name="Group 67741">
          <g id="Ellipse_14" data-name="Ellipse 14" transform="translate(17 506)" fill="#f8f8f8" stroke="#1a2e37" stroke-width="0.5">
            <circle cx="12" cy="12" r="12" stroke="none"/>
            <circle cx="12" cy="12" r="11.75" fill="none"/>
          </g>
        </g>
      </g>
      <g id="Group_67743" data-name="Group 67743">
        <path id="Path_57613" data-name="Path 57613" d="M4.119,11.2a.3.3,0,0,0,.11-.021h8.243a1.5,1.5,0,0,0,1.5-1.5V5.5a1.5,1.5,0,0,0-1.5-1.5H3.5A1.5,1.5,0,0,0,2,5.5V9.685a1.5,1.5,0,0,0,1.5,1.5h.513A.3.3,0,0,0,4.119,11.2Zm.274-6.3V4.6h7.181v.3a1.5,1.5,0,0,0,1.5,1.5h.3V8.787h-.3a1.5,1.5,0,0,0-1.5,1.5v.3H4.418v-.3a1.5,1.5,0,0,0-1.5-1.5H2.6V6.394h.3A1.5,1.5,0,0,0,4.394,4.9Zm-.9-.3h.3v.3a.9.9,0,0,1-.9.9H2.6V5.5A.9.9,0,0,1,3.5,4.6Zm.324,5.984v-.3a.9.9,0,0,0-.9-.9H2.6v.3a.9.9,0,0,0,.9.9Zm8.353,0h.3a.9.9,0,0,0,.9-.9v-.3h-.3a.9.9,0,0,0-.9.9Zm0-5.685V4.6h.3a.9.9,0,0,1,.9.9v.3h-.3A.9.9,0,0,1,12.173,4.9ZM7.984,9.984A2.394,2.394,0,1,1,10.377,7.59,2.394,2.394,0,0,1,7.984,9.984Zm1.8-2.394a1.8,1.8,0,1,1-1.8-1.8A1.8,1.8,0,0,1,9.779,7.59ZM2.3,12.377a.3.3,0,0,1,0-.6H13.669a.3.3,0,0,1,0,.6Zm-.3.9a.3.3,0,0,0,.3.3H13.669a.3.3,0,0,0,0-.6H2.3A.3.3,0,0,0,2,13.275Z" transform="translate(21.016 509.625)" fill-rule="evenodd"/>
      </g>
    </g>
  </g>
</svg>
