<svg xmlns="http://www.w3.org/2000/svg" width="18.314" height="18.314" viewBox="0 0 18.314 18.314">
  <path id="Path_57580" data-name="Path 57580" d="M10.555,17.711a7.565,7.565,0,0,0,7.156-7.156h1.2a.4.4,0,0,0,0-.8h-1.2A7.565,7.565,0,0,0,10.555,2.6V1.4a.4.4,0,0,0-.8,0V2.6A7.565,7.565,0,0,0,2.6,9.759H1.4a.4.4,0,0,0,0,.8H2.6a7.565,7.565,0,0,0,7.156,7.156v1.2a.4.4,0,0,0,.8,0Zm6.37-7.554a6.768,6.768,0,1,1-6.768-6.768A6.768,6.768,0,0,1,16.925,10.157ZM10.157,13.74a3.583,3.583,0,1,1,3.583-3.583A3.583,3.583,0,0,1,10.157,13.74Zm2.787-3.583A2.787,2.787,0,1,1,10.157,7.37,2.787,2.787,0,0,1,12.944,10.157Z" transform="translate(-1 -1)" fill-rule="evenodd"/>
</svg>
