<svg xmlns="http://www.w3.org/2000/svg" width="20" height="18" viewBox="0 0 20 18">
  <path id="Path_57568" data-name="Path 57568" d="M6,11H4v-.5H3v.415A1.5,1.5,0,0,1,2,9.5V8.693a1.5,1.5,0,0,1,.107-.557L4.036,3.314A.5.5,0,0,1,4.5,3h15a.5.5,0,0,1,.464.314l1.929,4.821A1.5,1.5,0,0,1,22,8.693V9.5a1.5,1.5,0,0,1-1,1.415V10.5H20V11H18a1.494,1.494,0,0,1-1-.382A1.494,1.494,0,0,1,16,11H13a1.494,1.494,0,0,1-1-.382A1.494,1.494,0,0,1,11,11H8a1.494,1.494,0,0,1-1-.382A1.494,1.494,0,0,1,6,11Zm14,0h.5a1.5,1.5,0,0,0,.5-.085V18.5A2.5,2.5,0,0,1,18.5,21H5.5A2.5,2.5,0,0,1,3,18.5V10.915A1.5,1.5,0,0,0,3.5,11H4v7.5A1.5,1.5,0,0,0,5.5,20H6V14.5A1.5,1.5,0,0,1,7.5,13h3A1.5,1.5,0,0,1,12,14.5V20h6.5A1.5,1.5,0,0,0,20,18.5ZM7,20h4V14.5a.5.5,0,0,0-.5-.5h-3a.5.5,0,0,0-.5.5Zm8-5.5v2a.5.5,0,0,0,.5.5h1a.5.5,0,0,0,.5-.5v-2a.5.5,0,0,0-.5-.5h-1A.5.5,0,0,0,15,14.5Zm.5-1.5A1.5,1.5,0,0,0,14,14.5v2A1.5,1.5,0,0,0,15.5,18h1A1.5,1.5,0,0,0,18,16.5v-2A1.5,1.5,0,0,0,16.5,13ZM3.036,8.507,4.839,4H19.162l1.8,4.507A.5.5,0,0,1,21,8.693V9.5a.5.5,0,0,1-.5.5H18a.5.5,0,0,1-.5-.5v-1a.5.5,0,0,0-1,0v1a.5.5,0,0,1-.5.5H13a.5.5,0,0,1-.5-.5v-1a.5.5,0,0,0-1,0v1a.5.5,0,0,1-.5.5H8a.5.5,0,0,1-.5-.5v-1a.5.5,0,0,0-1,0v1A.5.5,0,0,1,6,10H3.5A.5.5,0,0,1,3,9.5V8.693A.5.5,0,0,1,3.036,8.507Z" transform="translate(-2 -3)" fill="#aaa" fill-rule="evenodd"/>
</svg>
