<svg xmlns="http://www.w3.org/2000/svg" width="18.3" height="18.3" viewBox="0 0 18.3 18.3">
  <path id="Path_57600" data-name="Path 57600" d="M3,5.5A2.5,2.5,0,0,1,5.5,3h13A2.5,2.5,0,0,1,21,5.5v13A2.5,2.5,0,0,1,18.5,21H5.5A2.5,2.5,0,0,1,3,18.5Zm17,0V8H4V5.5A1.5,1.5,0,0,1,5.5,4h13A1.5,1.5,0,0,1,20,5.5ZM4,9H20v9.5A1.5,1.5,0,0,1,18.5,20H5.5A1.5,1.5,0,0,1,4,18.5Zm11.5,2A1.5,1.5,0,0,0,14,12.5v4A1.5,1.5,0,0,0,15.5,18h1A1.5,1.5,0,0,0,18,16.5v-4A1.5,1.5,0,0,0,16.5,11ZM15,16.5a.5.5,0,0,0,.5.5h1a.5.5,0,0,0,.5-.5v-4a.5.5,0,0,0-.5-.5h-1a.5.5,0,0,0-.5.5Zm-9-5a.5.5,0,0,0,.5.5h5a.5.5,0,0,0,0-1h-5A.5.5,0,0,0,6,11.5ZM6.5,15a.5.5,0,0,1,0-1h5a.5.5,0,0,1,0,1ZM6,17.5a.5.5,0,0,0,.5.5h3a.5.5,0,0,0,0-1h-3A.5.5,0,0,0,6,17.5Z" transform="translate(-2.85 -2.85)" fill="#1d1919" stroke="#1d1919" stroke-width="0.3" fill-rule="evenodd"/>
</svg>
