<svg xmlns="http://www.w3.org/2000/svg" width="24" height="24" viewBox="0 0 24 24">
  <g id="Group_67311" data-name="Group 67311" transform="translate(-33 -222)">
    <g id="Ellipse_13" data-name="Ellipse 13" transform="translate(33 222)" fill="#f8f8f8" stroke="#1a2e37" stroke-width="0.5">
      <circle cx="12" cy="12" r="12" stroke="none"/>
      <circle cx="12" cy="12" r="11.75" fill="none"/>
    </g>
    <path id="Path_57603" data-name="Path 57603" d="M3.088,8.832,5.521,7.579a.3.3,0,0,0,.031-.529,2.4,2.4,0,1,1,3.234-3.4.3.3,0,0,0,.5-.337A3,3,0,1,0,4.828,7.261L2.813,8.3A1.5,1.5,0,0,0,2,9.632V10.1a1.5,1.5,0,0,0,1.5,1.5.3.3,0,1,0,0-.6.9.9,0,0,1-.9-.9V9.632A.9.9,0,0,1,3.088,8.832Zm2.439,2.422L7.977,10.14a3.008,3.008,0,0,0,2.446,0l2.449,1.113a.9.9,0,0,1,.528.819V12.5a.9.9,0,0,1-.9.9H5.9a.9.9,0,0,1-.9-.9v-.427A.9.9,0,0,1,5.528,11.253ZM7.353,9.764a3,3,0,1,1,3.693,0l2.074.943A1.5,1.5,0,0,1,14,12.073V12.5A1.5,1.5,0,0,1,12.5,14H5.9a1.5,1.5,0,0,1-1.5-1.5v-.427a1.5,1.5,0,0,1,.879-1.366ZM11.6,7.4A2.4,2.4,0,1,1,9.2,5,2.4,2.4,0,0,1,11.6,7.4Z" transform="translate(37 226)" fill="#1a2e37" fill-rule="evenodd"/>
  </g>
</svg>
