<svg xmlns="http://www.w3.org/2000/svg" width="16.354" height="16.359" viewBox="0 0 16.354 16.359">
  <path id="Path_57799" data-name="Path 57799" d="M4.044,2A2.044,2.044,0,0,0,2,4.044V5.685A12.674,12.674,0,0,0,14.674,18.36H16.31a2.044,2.044,0,0,0,2.044-2.044v-2.1a2.044,2.044,0,0,0-1.4-1.939l-2.6-.868a2.044,2.044,0,0,0-2.347.805l-.6.894a.409.409,0,0,1-.47.161l-1.247-.416a3.215,3.215,0,0,1-2.085-2.2L7.1,8.771a.409.409,0,0,1,.265-.5l.493-.164A1.922,1.922,0,0,0,9.141,5.973L8.764,3.708A2.044,2.044,0,0,0,6.747,2ZM2.818,5.685V4.044A1.227,1.227,0,0,1,4.044,2.818h2.7a1.227,1.227,0,0,1,1.21,1.025l.377,2.264a1.1,1.1,0,0,1-.74,1.229L7.1,7.5a1.227,1.227,0,0,0-.8,1.486l.513,1.88a4.032,4.032,0,0,0,2.615,2.765l1.247.416a1.226,1.226,0,0,0,1.408-.483l.6-.894a1.227,1.227,0,0,1,1.408-.483l2.6.868a1.227,1.227,0,0,1,.839,1.164v2.1a1.227,1.227,0,0,1-1.227,1.227H14.674A11.857,11.857,0,0,1,2.818,5.685Z" transform="translate(-2 -2)" fill-rule="evenodd"/>
</svg>
