<svg xmlns="http://www.w3.org/2000/svg" width="313.973" height="228.669" viewBox="0 0 313.973 228.669">
  <g id="Group_67540" data-name="Group 67540" transform="translate(0 -0.002)">
    <path id="Path_57861" data-name="Path 57861" d="M313.478,104.19c-3.887,28.978-8.274,44.286-33.881,74.633S136.812,229.134,93.491,229.134-3.218,195.73.152,157.024,21.1,86.685,63.176,82.79c43-3.98,80.771,14.45,122.987,4.565,36.5-8.545,47.664-41.118,72.731-51.394C309.591,15.178,316.122,84.475,313.478,104.19Z" transform="translate(0 -17.669)" fill="#f1f1f1" fill-rule="evenodd"/>
    <path id="Path_57863" data-name="Path 57863" d="M408.994,346.49c-17.6,3.009-9.21-9.78-6.783-25.788,3.987-26.3,8.9-66.277,8.9-66.277s3.207,60.909,3.207,75.74S411.115,346.127,408.994,346.49Z" transform="translate(-219.024 -139.984)" fill="#fff" fill-rule="evenodd"/>
    <path id="Path_57864" data-name="Path 57864" d="M268.371,209.659c.449,4.236.923,8.561,2.723,12.421q-1.474-13.112-2.946-26.225c-.121-1.08-.085-2.454.908-2.894q1.26,14.806,3.754,29.473c.2,1.16-1.545,1.822-2.522,1.169a4.53,4.53,0,0,1-1.514-3.08,148.736,148.736,0,0,1-2.66-25.541c-2.064.406-3.511,2.407-3.928,4.468a16.168,16.168,0,0,0,.387,6.254l3.883,19.935c.6,3.108,1.21,6.319.542,9.415q-3.852-17.59-6.187-35.467a76.412,76.412,0,0,1-66.615,5.878c-4.7-1.837-9.365-4.272-12.468-8.25a24.474,24.474,0,0,1-4.433-10.939c-2.427-13.9,2.547-28.088,9.3-40.483,2.562-4.7,5.479-9.6,5.272-14.954-.071-1.842-.468-3.882.608-5.38.152.278-7.044-51.2-4.157-62.584,6.95-27.411,29.526-31.124,43.981-30.785,9.7.227,71.175,12.444,80.057,29.058,11.674,21.836,9.2,40.194,7.122,52.3-.617,3.6-30.172,18.371-30.18,18.446-1.689,15.707-13.028,49.933-22.537,62.548Z" transform="translate(-97.204 -17.645)" fill="#fff"/>
    <path id="Path_57866" data-name="Path 57866" d="M260.039,17.234a45.366,45.366,0,0,0-.94-12.59l-.019-.088h0a5.178,5.178,0,0,1-.169-2.113A3.506,3.506,0,0,1,262.51,0a10.238,10.238,0,0,1,4.426,1.518c6.682,3.52,13.485,7.129,18.746,12.548.165,4.387-.869,8.716-1.89,12.99l-.1.4q-6.391,26.793-10.454,54.071c-.259,1.741-.751,3.795-2.4,4.4a3.252,3.252,0,0,1-3.4-1.063,7.542,7.542,0,0,1-1.524-3.423,23.69,23.69,0,0,1-.244-9.281,47.192,47.192,0,0,1,1.425-5.529h0c.493-1.639.987-3.279,1.319-4.956a51.179,51.179,0,0,0,.661-5.085q1.293-13.58,2.194-27.193a9.708,9.708,0,0,0-.258-3.819c-.747-2.16-2.924-3.525-5.122-4.151-.379-.108-.764-.2-1.148-.291a11.567,11.567,0,0,1-2.608-.843A3.464,3.464,0,0,1,260.039,17.234Zm4.083-.346a44.465,44.465,0,0,1,9.041,2.948,3.063,3.063,0,0,1,1.512,1.125,3.152,3.152,0,0,1,.28,1.524,152.25,152.25,0,0,1-.539,18.382c-.389,3.652-1.016,7.273-1.644,10.893-.2,1.146-.4,2.292-.588,3.438q-1.418,8.512-2.281,17.1c-.417,4.153-.722,8.446.57,12.415.663-.121.918-.919,1.044-1.581l11.939-62.931a11.43,11.43,0,0,0,.237-4.615c-.6-2.651-2.949-4.494-5.218-5.989a80.586,80.586,0,0,0-13.857-7.31Q264.014,9.572,264.122,16.888Zm6.14,41.33a161.377,161.377,0,0,0,2.94-34.11,4.108,4.108,0,0,0-.592-2.474,3.884,3.884,0,0,0-1.556-1.053,31.277,31.277,0,0,0-6.781-2.15c-.675-.132-1.667.011-1.638.7l8.383,3.464a2.562,2.562,0,0,1,1.294.887A2.56,2.56,0,0,1,272.522,25Zm-7.8-57.036a1.551,1.551,0,0,0-2.074.749,4.267,4.267,0,0,0-.239,2.438c.128,1.21.3,2.42.465,3.631a39.408,39.408,0,0,1,.538,10.071,1.461,1.461,0,0,0,1.649-.825,4.262,4.262,0,0,0,.317-1.965l.021-12.087A2.3,2.3,0,0,0,262.46,1.182Zm6.208,83.264a48.171,48.171,0,0,1-.3-9.016c.1-1.607.276-3.208.454-4.81h0c.236-2.118.472-4.234.521-6.363a39.936,39.936,0,0,0-1.918,16.172A7.392,7.392,0,0,0,268.668,84.446Zm.958-23.25a.56.56,0,0,0,.233-.778.606.606,0,0,0-.247.812Zm-2.6-25.955c-13.857-8.545-29.525-13.665-45.194-18.083A95.688,95.688,0,0,0,206.6,13.812c-15.324-1.717-30.859,3.571-43.6,12.255-5.11,3.483-10.04,7.767-12.249,13.544-1.638,4.286-1.626,9-1.469,13.59.545,15.816,2.574,31.539,4.6,47.233,1.585-.286,1.742-2.478,1.512-4.071a351.311,351.311,0,0,1-3.536-44.192c-.069-4.146-.047-8.4,1.388-12.287,2.6-7.043,9.3-11.648,15.869-15.273,8.279-4.565,17.279-8.4,26.731-8.607,11.45-.247,22.3,4.832,32.3,10.41,5.576,3.11,11.23,6.582,14.777,11.891,3.221,4.82,4.391,10.694,5.237,16.43,2.683,18.2,2.781,36.676,2.874,55.076a1.882,1.882,0,0,1-2.076,2.442l-18.679.972a35.985,35.985,0,0,0,26.378-2.7l20.755-10.9a15.322,15.322,0,0,0,5.272-3.82c1.837-2.386,2.1-5.6,2.187-8.606a130.426,130.426,0,0,0-3.3-33.112,276.6,276.6,0,0,1,.361,35.236,11.658,11.658,0,0,1-1.358,5.793c-1.165,1.8-3.188,2.82-5.116,3.757l-22.4,10.887A277.418,277.418,0,0,0,250.916,57.6c-.791-5.808-1.8-11.7-4.458-16.923-6.281-12.347-20.185-18.455-33.035-23.63,19.211,5.621,38.642,11.334,55.926,21.431C269.573,37.08,268.225,35.982,267.023,35.24ZM231.581,192.015c.449,4.236.923,8.561,2.723,12.421l-2.947-26.225c-.121-1.08-.085-2.454.908-2.894q1.261,14.806,3.754,29.473c.2,1.16-1.545,1.822-2.523,1.169a4.529,4.529,0,0,1-1.513-3.079,148.7,148.7,0,0,1-2.66-25.541c-2.064.406-3.511,2.407-3.928,4.468a16.159,16.159,0,0,0,.387,6.254L229.665,208c.605,3.108,1.211,6.319.543,9.415q-3.853-17.59-6.187-35.467a76.414,76.414,0,0,1-66.615,5.879c-4.7-1.838-9.365-4.273-12.468-8.25a24.478,24.478,0,0,1-4.433-10.939c-2.427-13.9,2.547-28.088,9.3-40.483q.264-.484.532-.972c2.416-4.407,4.933-9,4.74-13.982-.013-.33-.036-.665-.059-1-.107-1.552-.217-3.147.667-4.377a11.368,11.368,0,0,1,1.263,7.14q30.6-1.318,61.25-.53c.238.939-1.122,1.375-2.09,1.36q-28.577-.426-57.143.973a2.676,2.676,0,0,0-2.885,1.885c-5.4,10.568-10.82,21.29-13.431,32.867-1.343,5.954-1.857,12.47.895,17.918a21.452,21.452,0,0,0,4.169,5.518c8.849,8.728,22.1,11.4,34.529,11.2a94.384,94.384,0,0,0,23.494-3.385c8.107-2.238,16.192-5.766,21.726-12.1,3.249-3.719,5.458-8.224,7.392-12.768a143.217,143.217,0,0,0,8.443-26.954c1.2.252,1.218,1.95.941,3.145-3.428,14.788-7.412,30.55-18.7,40.7-10.2,9.164-24.566,12.006-38.254,12.773-7.907.443-15.939.3-23.6-1.712s-14.971-6.048-19.833-12.3c1.418,5.407,6.222,9.265,11.223,11.763,13.13,6.557,28.636,6.21,43.134,3.931,9.658-1.518,19.571-4.01,27.087-10.262,6.424-5.344,10.519-12.977,13.6-20.744a114.909,114.909,0,0,0,7.031-26.775c.78-.493,1.358.886,1.259,1.8A88.482,88.482,0,0,1,229.968,176.8Zm-9.131,26.86a11.918,11.918,0,0,1-1.573-4.638l-1.2,4.079-3.038-11.586c-.236-.9-.809-2.024-1.718-1.83-.883.188-.983,1.4-.851,2.294a51.37,51.37,0,0,0,3.742,13.063l-3.23-2.835a5.66,5.66,0,0,0,.978,3.865,7.077,7.077,0,0,0-5.957-1.115,14.708,14.708,0,0,0,5.629,4.684l-2.729-3.81a46.389,46.389,0,0,0,6.9,3.26l-2.313-2.9,2.858.792c-2.187-4.975-4.415-10.139-4.362-15.573A77.9,77.9,0,0,0,219.2,219.6a4.742,4.742,0,0,0,1.134,1.958,1.691,1.691,0,0,0,2.092.223,2.5,2.5,0,0,0,.7-1.587l1.287-7.138,1.414,8.853c1.072-2.707,4.558-3.386,7.47-3.4a101.266,101.266,0,0,1,11.583.822h0c6.965.762,13.9,1.52,20.572-.354a11.172,11.172,0,0,1-1.015,2.972,100.21,100.21,0,0,1,16.275-1.028c2.3.043,4.6.163,6.908.284h0c6.093.32,12.186.64,18.157-.492l-39.623-.348a1.2,1.2,0,1,0-.784-2.168,2.127,2.127,0,0,0-3.17-1,9.472,9.472,0,0,1,3.326-4.638,7.66,7.66,0,0,0-4.933,1.487l4.262-19.724a.883.883,0,0,0-1.228.292,2.663,2.663,0,0,0-.321,1.356v.015a35.631,35.631,0,0,1-6.755,18.789L255,210.254l-2.24,5.4a3.764,3.764,0,0,0-3.646-.5,3.63,3.63,0,0,0,2.366,2.489l.53-1.42,3.5,2.344a4.7,4.7,0,0,1-.681-5.386l2.118,3.553,4.106-8.119c.023,3.26-1.375,6.341-2.744,9.3a16.058,16.058,0,0,0,3.76-4.207c.957,1.695-.089,3.968-1.753,4.977a10.03,10.03,0,0,1-5.669.982c-2.968-.126-5.958-.5-8.945-.87h0c-6.707-.836-13.4-1.67-19.767.3l-.919-8.471A21.377,21.377,0,0,0,222.45,218.874Zm39.976.226a.5.5,0,0,1,0-.619l.116.044a.655.655,0,0,1,1.164.054A2.942,2.942,0,0,1,262.426,219.1Zm21.647-90.006c-4.615-2.332-10.106-1.7-15.228-1a13.705,13.705,0,0,0-4.234,1.051,4.655,4.655,0,0,0-2.679,3.255A62.191,62.191,0,0,1,228.1,116.859c-2.026-1.839-4.094-4.458-3.183-7.038a6.478,6.478,0,0,1,1.423-2.131c4.353-4.772,10.354-7.643,16.2-10.4a26.421,26.421,0,0,0-17.357,8.8A9.364,9.364,0,0,0,222.9,110c-.854,3.663,1.991,7.1,4.839,9.557A61.9,61.9,0,0,0,260.158,134c.714.091.751,1.095.686,1.811-.29,3.188,1.447,6.3,3.856,8.408a27,27,0,0,0,8.42,4.509,149.646,149.646,0,0,0,28.675,7.708c.646.106,1.534.056,1.67-.585-2.258-1.493-4.974-2.062-7.631-2.619l-.43-.09a162.519,162.519,0,0,1-19.883-5.526,31.622,31.622,0,0,1-7.667-3.543,12.206,12.206,0,0,1-5.045-6.589c-.367-1.345.131-3.353,1.515-3.184,5.636.69,11.427,1.37,16.931-.028a5.652,5.652,0,0,0,3.3-1.83C285.317,131.41,285.22,129.674,284.073,129.095Zm-14.216,3.725a23.506,23.506,0,0,0-5.868-.265c.951-1.806,3.273-2.282,5.3-2.557,4.4-.6,8.973-1.182,13.185.211a1.253,1.253,0,0,1,.726.461.88.88,0,0,1-.228,1.045,2.417,2.417,0,0,1-1.037.487A27.622,27.622,0,0,1,269.857,132.819Zm-64.021,91.118a19.985,19.985,0,0,1,9.4,2.065c-.775,1.115-2.334,1.271-3.691,1.322l-35.467,1.346c-.325-.04-.386-.542-.156-.775a1.342,1.342,0,0,1,.917-.279l34.622-1.689A12.172,12.172,0,0,1,205.835,223.938Zm-68.255-117.3a4.54,4.54,0,0,0,4,5.179c-4.027,6.069-11.281,9.064-18.251,11.178-4.35,1.319-9.175,2.4-13.323.541-.515.314.034,1.089.578,1.351,4.036,1.944,8.82.861,13.113-.42,6.295-1.879,12.784-4.307,17.068-9.288.175-.2.35-.414.526-.625h0c1.1-1.325,2.252-2.706,3.91-3.013,5.337-.987,9.782-4.33,14.174-7.633h0c1-.749,1.989-1.5,2.989-2.213A74.338,74.338,0,0,1,182.3,91.56c.627-.207,1.39-.592,1.335-1.25-8.807.808-16.505,6.06-23.6,11.336l-.237.176c-4.824,3.587-9.865,7.334-15.8,8.223a3.912,3.912,0,0,0-.658-6.209A4.2,4.2,0,0,0,137.58,106.642Zm1.644,1.477a2.748,2.748,0,0,1,1.3-3.162,2.119,2.119,0,0,1,1-.281,2.312,2.312,0,0,1,2.014,2.4,6.718,6.718,0,0,1-1.151,3.238A3.8,3.8,0,0,1,139.224,108.119ZM271.012,82.282c-.328-.366-.228-.858-.123-1.368a2.68,2.68,0,0,0,.077-1.069,2.312,2.312,0,0,0-.407-.8,2.658,2.658,0,0,1-.384-.7c.018-.336.468-.509.775-.37a1.252,1.252,0,0,1,.585.789A3.982,3.982,0,0,1,271.012,82.282ZM241.322,56.7a6.563,6.563,0,0,1,4.522-4.066c.672-.128.65-1.234.063-1.582a2.141,2.141,0,0,0-1.961.152c-2.874,1.368-4.688,4.379-5.4,7.482a31.866,31.866,0,0,0-.237,9.507l1.271,16.87A3.384,3.384,0,0,0,240,86.716c.65.975,2.046,1.005,3.215.931l5.918-.376A6,6,0,0,0,244.4,86.11a2.494,2.494,0,0,1-2.433-1.289,7.038,7.038,0,0,1-.784-2.8,116.505,116.505,0,0,1-.9-19.112A17.467,17.467,0,0,1,241.322,56.7Zm15.112,149.747c-.336.244-.673-.311-.722-.724-2.287-19.226-2.632-38.623-2.974-57.981l-.231-13.051a1.582,1.582,0,0,1,.238-1.064,1.09,1.09,0,0,1,1.635.264,3.152,3.152,0,0,1,.348,1.855,499.941,499.941,0,0,0,1.7,57.1q.034.345.067.693h0C256.916,197.849,257.34,202.222,256.434,206.446ZM237.419,85.259a2.209,2.209,0,0,0-1.667.043c-25.356,7.5-50.655,15.233-75.58,24.058-.466.165-1,.4-1.107.886a1.019,1.019,0,0,0,.884,1.1,2.967,2.967,0,0,0,1.529-.27q37.47-13.784,75.982-24.474C238.01,86.445,237.92,85.535,237.419,85.259Z" transform="translate(-60.414 0)" fill="#00160a" fill-rule="evenodd"/>
    <path id="Path_57869" data-name="Path 57869" d="M426.588,265.035q-.012-4.587-.025-9.175,0-1.318-.007-2.635c0-.606.1-1.363.676-1.552a1,1,0,0,1,1.118.581,2.9,2.9,0,0,1,.194,1.347q-.1,6.4-.19,12.8c-.009.614-.112,1.369-.687,1.584-.959-.543-1.076-1.852-1.079-2.954Z" transform="translate(-234.691 -138.45)" fill="#00160a" fill-rule="evenodd"/>
    <path id="Path_57870" data-name="Path 57870" d="M412.3,263.737c-.443.194-.671-.535-.6-1.014a51.269,51.269,0,0,1,.907-5.108,4.763,4.763,0,0,1,1.5-2.789,1.872,1.872,0,0,1,2.769.46,2.708,2.708,0,0,1,.026,1.541,76.534,76.534,0,0,1-2.343,9.4.829.829,0,0,1-.186.362.579.579,0,0,1-.842-.213,1.679,1.679,0,0,1-.118-.977c.4-.029.583-.5.678-.883q.585-2.371,1.169-4.742c.3-1.23.58-2.63-.125-3.682a3.4,3.4,0,0,0-1.214,2.173q-.652,2.486-1.3,4.973a.7.7,0,0,1-.312.5Z" transform="translate(-226.51 -139.983)" fill="#00160a" fill-rule="evenodd"/>
  </g>
</svg>
