<svg id="postbox" xmlns="http://www.w3.org/2000/svg" width="16.729" height="16.729" viewBox="0 0 16.729 16.729">
  <path id="Path_57792" data-name="Path 57792" d="M6.622,15.061H.349A.349.349,0,0,1,0,14.713V9.485a3.485,3.485,0,1,1,6.97,0v5.228A.349.349,0,0,1,6.622,15.061ZM.7,14.364H6.273V9.485a2.788,2.788,0,1,0-5.576,0Z" transform="translate(0 -1.818)"/>
  <path id="Path_57793" data-name="Path 57793" d="M17.743,15.061H7.985a.349.349,0,1,1,0-.7h9.41V9.485A2.791,2.791,0,0,0,14.607,6.7H4.849a.349.349,0,0,1,0-.7h9.758a3.489,3.489,0,0,1,3.485,3.485v5.228A.349.349,0,0,1,17.743,15.061Z" transform="translate(-1.363 -1.818)"/>
  <path id="Path_57794" data-name="Path 57794" d="M13.349,22.182A.349.349,0,0,1,13,21.834V18.349a.349.349,0,1,1,.7,0v3.485A.349.349,0,0,1,13.349,22.182Z" transform="translate(-3.939 -5.454)"/>
  <path id="Path_57795" data-name="Path 57795" d="M3.349,4.879A.349.349,0,0,1,3,4.531V.349a.349.349,0,1,1,.7,0V4.531A.349.349,0,0,1,3.349,4.879Z" transform="translate(-0.909)"/>
  <path id="Path_57796" data-name="Path 57796" d="M6.834,2.788H3.349A.349.349,0,0,1,3,2.44V.349A.349.349,0,0,1,3.349,0H6.834a.349.349,0,0,1,.349.349V2.44A.349.349,0,0,1,6.834,2.788ZM3.7,2.091H6.485V.7H3.7Z" transform="translate(-0.909)"/>
</svg>
