<svg xmlns="http://www.w3.org/2000/svg" width="290.859" height="290.859" viewBox="0 0 290.859 290.859">
  <path id="Path_57945" data-name="Path 57945" d="M11.079,83.794a8.079,8.079,0,0,0,8.079-8.079V43.4A24.238,24.238,0,0,1,43.4,19.159H75.715A8.079,8.079,0,0,0,75.715,3H43.4A40.4,40.4,0,0,0,3,43.4V75.715A8.079,8.079,0,0,0,11.079,83.794ZM213.065,11.079a8.08,8.08,0,0,0,8.079,8.079h32.318A24.239,24.239,0,0,1,277.7,43.4V75.715a8.079,8.079,0,0,0,16.159,0V43.4A40.4,40.4,0,0,0,253.462,3H221.144A8.08,8.08,0,0,0,213.065,11.079ZM277.7,221.144a8.079,8.079,0,1,1,16.159,0v32.318a40.4,40.4,0,0,1-40.4,40.4H221.144a8.079,8.079,0,1,1,0-16.159h32.318A24.239,24.239,0,0,0,277.7,253.462ZM83.794,285.779a8.08,8.08,0,0,0-8.079-8.079H43.4a24.239,24.239,0,0,1-24.238-24.238V221.144a8.079,8.079,0,1,0-16.159,0v32.318a40.4,40.4,0,0,0,40.4,40.4H75.715A8.08,8.08,0,0,0,83.794,285.779Z" transform="translate(-3 -3)" fill="#fff" fill-rule="evenodd"/>
</svg>
