<svg xmlns="http://www.w3.org/2000/svg" width="66" height="98.808" viewBox="0 0 66 98.808">
  <g id="Group_67653" data-name="Group 67653" transform="translate(-271 -683.192)">
    <g id="Group_67604" data-name="Group 67604" transform="translate(-29.021 -27.831)">
      <rect id="Rectangle_18117" data-name="Rectangle 18117" width="66" height="21" rx="2" transform="translate(300.021 788.831)" fill="#fff" opacity="0.17"/>
      <text id="Scan_QR_code" data-name="Scan QR code" transform="translate(308.021 801.831)" fill="#e0e0e0" font-size="7" font-family="SegoeUI, Segoe UI"><tspan x="0" y="0">SCAN QR CODE</tspan></text>
    </g>
    <path id="Path_57945" data-name="Path 57945" d="M4.665,19.646a1.665,1.665,0,0,0,1.665-1.665V11.323a4.994,4.994,0,0,1,4.994-4.994h6.658a1.665,1.665,0,0,0,0-3.329H11.323A8.323,8.323,0,0,0,3,11.323v6.658A1.665,1.665,0,0,0,4.665,19.646ZM46.279,4.665a1.665,1.665,0,0,0,1.665,1.665H54.6A4.994,4.994,0,0,1,59.6,11.323v6.658a1.665,1.665,0,1,0,3.329,0V11.323A8.323,8.323,0,0,0,54.6,3H47.943A1.665,1.665,0,0,0,46.279,4.665ZM59.6,47.943a1.665,1.665,0,1,1,3.329,0V54.6A8.323,8.323,0,0,1,54.6,62.924H47.943a1.665,1.665,0,1,1,0-3.329H54.6A4.994,4.994,0,0,0,59.6,54.6ZM19.646,61.26A1.665,1.665,0,0,0,17.981,59.6H11.323A4.994,4.994,0,0,1,6.329,54.6V47.943a1.665,1.665,0,1,0-3.329,0V54.6a8.323,8.323,0,0,0,8.323,8.323h6.658A1.665,1.665,0,0,0,19.646,61.26Z" transform="translate(272 680.192)" fill="#fff" fill-rule="evenodd"/>
  </g>
</svg>
