<svg xmlns="http://www.w3.org/2000/svg" width="18.502" height="20" viewBox="0 0 18.502 20">
  <path id="Path_57804" data-name="Path 57804" d="M18.671,5.606l-1.484.3A7.992,7.992,0,0,0,14.681,4.46L14.2,3.026A1.5,1.5,0,0,0,12.779,2H11.221A1.5,1.5,0,0,0,9.8,3.026L9.32,4.46A7.992,7.992,0,0,0,6.813,5.909l-1.484-.3a1.5,1.5,0,0,0-1.6.72L2.95,7.675A1.5,1.5,0,0,0,3.127,9.42l1,1.132a8.08,8.08,0,0,0,0,2.9l-1,1.132a1.5,1.5,0,0,0-.177,1.745l.779,1.35a1.5,1.5,0,0,0,1.6.72l1.484-.3A7.99,7.99,0,0,0,9.32,19.54L9.8,20.974A1.5,1.5,0,0,0,11.221,22h1.559A1.5,1.5,0,0,0,14.2,20.974l.478-1.435a7.99,7.99,0,0,0,2.506-1.449l1.484.3a1.5,1.5,0,0,0,1.6-.72l.779-1.35a1.5,1.5,0,0,0-.177-1.745l-1-1.132a8.084,8.084,0,0,0,0-2.9l1-1.132a1.5,1.5,0,0,0,.177-1.745l-.779-1.35A1.5,1.5,0,0,0,18.671,5.606Zm-4.86-.593a.5.5,0,0,0,.322.318,6.992,6.992,0,0,1,2.575,1.488.5.5,0,0,0,.437.12l1.728-.354a.5.5,0,0,1,.533.24l.779,1.35a.5.5,0,0,1-.059.582l-1.169,1.318a.5.5,0,0,0-.115.437,7.073,7.073,0,0,1,0,2.976.5.5,0,0,0,.115.437l1.169,1.318a.5.5,0,0,1,.059.582l-.779,1.35a.5.5,0,0,1-.533.24l-1.728-.354a.5.5,0,0,0-.437.12,6.989,6.989,0,0,1-2.575,1.488.5.5,0,0,0-.322.318l-.557,1.671a.5.5,0,0,1-.474.342H11.221a.5.5,0,0,1-.474-.342l-.557-1.671a.5.5,0,0,0-.322-.318,6.989,6.989,0,0,1-2.575-1.488.5.5,0,0,0-.437-.12l-1.728.354a.5.5,0,0,1-.533-.24l-.779-1.35a.5.5,0,0,1,.059-.582l1.169-1.318a.5.5,0,0,0,.115-.437,7.07,7.07,0,0,1,0-2.976.5.5,0,0,0-.115-.437L3.875,8.757a.5.5,0,0,1-.059-.582L4.6,6.825a.5.5,0,0,1,.533-.24l1.728.354a.5.5,0,0,0,.437-.12A6.992,6.992,0,0,1,9.867,5.331a.5.5,0,0,0,.322-.318l.557-1.671A.5.5,0,0,1,11.221,3h1.559a.5.5,0,0,1,.474.342ZM12,16a4,4,0,1,1,4-4A4,4,0,0,1,12,16Zm3-4a3,3,0,1,1-3-3A3,3,0,0,1,15,12Z" transform="translate(-2.749 -2)" fill-rule="evenodd"/>
</svg>
