<svg xmlns="http://www.w3.org/2000/svg" xmlns:xlink="http://www.w3.org/1999/xlink" width="140.161" height="129.478" viewBox="0 0 140.161 129.478">
  <defs>
    <linearGradient id="linear-gradient" x1="0.5" x2="0.5" y2="1" gradientUnits="objectBoundingBox">
      <stop offset="0" stop-color="#d3d5d1"/>
      <stop offset="1" stop-color="#5d818b"/>
    </linearGradient>
  </defs>
  <g id="Group_67234" data-name="Group 67234" transform="translate(-117.442 -340.547)">
    <path id="M" d="M70.376,796.222l11.252,11.207v58.278H70.376ZM90.63,816.176l11.252,11.183v38.348H90.63ZM70.376,790.618l7.878-7.845,56.261,56.036L178.4,796.222l-13.5-13.449,45.009-10.087-11.252,44.829-13.5-13.448L134.515,854.5ZM180.65,815.275l7.878,7.844-42.76,42.587-7.878-7.844ZM97.381,780.532H81.628l49.511,49.311L139.016,822Z" transform="translate(47.697 -432.14)" fill-rule="evenodd" fill="url(#linear-gradient)"/>
    <path id="MISSION" d="M632.991,1052.61l1.965-14.411,7.155,14.411h.511l7.071-14.3,1.976,14.3h1.96l-2.878-20h-.32l-8.052,16.409-8.13-16.409h-.325l-2.863,20h1.93Zm29.849,0h2v-20h-2Zm12.815-.469a5.889,5.889,0,0,0,3.3.972,5.552,5.552,0,0,0,4.018-1.6,5.1,5.1,0,0,0,1.652-3.779,5.493,5.493,0,0,0-.966-3,14.578,14.578,0,0,0-3.561-3.412q-2.19-1.619-2.583-2a4.654,4.654,0,0,1-.993-1.332,3.065,3.065,0,0,1-.272-1.264,2.4,2.4,0,0,1,.768-1.808,2.741,2.741,0,0,1,1.978-.735,3.318,3.318,0,0,1,1.734.476,7.846,7.846,0,0,1,1.924,1.971l1.631-1.236a9.068,9.068,0,0,0-2.6-2.576,5.258,5.258,0,0,0-2.644-.7,5.074,5.074,0,0,0-2.467.618,4.451,4.451,0,0,0-1.761,1.693,4.638,4.638,0,0,0-.626,2.379,5,5,0,0,0,1.061,3.06,17.5,17.5,0,0,0,3.113,2.733,16.279,16.279,0,0,1,3.425,3.208,3.394,3.394,0,0,1,.681,1.971,3.251,3.251,0,0,1-.463,1.672,3.31,3.31,0,0,1-1.346,1.257,3.971,3.971,0,0,1-1.889.469q-2.353,0-4.147-3.3l-1.7,1.019A8.9,8.9,0,0,0,675.655,1052.141Zm19.435,0a5.893,5.893,0,0,0,3.3.972,5.551,5.551,0,0,0,4.017-1.6,5.1,5.1,0,0,0,1.652-3.779,5.5,5.5,0,0,0-.964-3,14.561,14.561,0,0,0-3.562-3.412q-2.189-1.619-2.583-2a4.652,4.652,0,0,1-.992-1.332,3.083,3.083,0,0,1-.272-1.264,2.4,2.4,0,0,1,.768-1.808,2.741,2.741,0,0,1,1.978-.735,3.316,3.316,0,0,1,1.734.476,7.81,7.81,0,0,1,1.924,1.971l1.631-1.236a9.042,9.042,0,0,0-2.6-2.576,5.258,5.258,0,0,0-2.644-.7,5.079,5.079,0,0,0-2.467.618,4.45,4.45,0,0,0-1.761,1.693,4.647,4.647,0,0,0-.626,2.379,5,5,0,0,0,1.06,3.06,17.506,17.506,0,0,0,3.114,2.733,16.311,16.311,0,0,1,3.426,3.208,3.388,3.388,0,0,1,.68,1.971,3.251,3.251,0,0,1-.463,1.672,3.307,3.307,0,0,1-1.345,1.257,3.972,3.972,0,0,1-1.89.469q-2.351,0-4.146-3.3l-1.7,1.019A8.887,8.887,0,0,0,695.091,1052.141Zm18.484.469h2v-20h-2Zm16.462-19.109a10.147,10.147,0,0,0-3.8,3.855,10.652,10.652,0,0,0-1.395,5.342,10.01,10.01,0,0,0,3.061,7.369,10.242,10.242,0,0,0,7.51,3.046,10.544,10.544,0,0,0,7.441-17.972,10.38,10.38,0,0,0-7.6-3.032A10.229,10.229,0,0,0,730.036,1033.5Zm9.575,1.708a8.291,8.291,0,0,1,3.124,3.081,8.468,8.468,0,0,1,1.11,4.307,8.678,8.678,0,0,1-1.11,4.354,8.07,8.07,0,0,1-3.091,3.088,8.55,8.55,0,0,1-4.309,1.13,8.409,8.409,0,0,1-8.429-8.477,8.663,8.663,0,0,1,1.117-4.367,8.422,8.422,0,0,1,11.588-3.115Zm17.961,17.4v-15.144l13.2,15.144h.449v-20H769.25v15.33l-13.31-15.33H755.5v20Z" transform="translate(-513.618 -583.088)" fill="#535353" fill-rule="evenodd"/>
  </g>
</svg>
