<svg xmlns="http://www.w3.org/2000/svg" width="88.98" height="122.348" viewBox="0 0 88.98 122.348">
  <path id="Path_57995" data-name="Path 57995" d="M92.98,26.026a13.908,13.908,0,0,0-11.356-13.67A13.908,13.908,0,0,0,67.955,1H17.9A13.9,13.9,0,0,0,4,14.9V98.322a13.908,13.908,0,0,0,11.355,13.67,13.908,13.908,0,0,0,13.67,11.356H79.077a13.9,13.9,0,0,0,13.9-13.9ZM76.3,62.174H67.955V60.13A13.9,13.9,0,0,0,61.2,48.208l-5.394-3.237a16.684,16.684,0,1,0-25.763,0l-5.394,3.237A13.9,13.9,0,0,0,17.9,60.13v2.044H9.561V14.9A8.342,8.342,0,0,1,17.9,6.561H67.955A8.342,8.342,0,0,1,76.3,14.9Zm-13.9-2.044v2.044H23.464V60.13a8.343,8.343,0,0,1,4.05-7.153l7-4.2a16.7,16.7,0,0,0,16.83,0l7,4.2A8.342,8.342,0,0,1,62.393,60.13ZM9.561,67.735V98.322a8.342,8.342,0,0,0,8.342,8.342H67.955A8.342,8.342,0,0,0,76.3,98.322V67.735Zm11.6,44.49a8.345,8.345,0,0,0,7.867,5.561H79.077a8.342,8.342,0,0,0,8.342-8.342V26.026a8.345,8.345,0,0,0-5.561-7.867V98.322a13.9,13.9,0,0,1-13.9,13.9ZM54.052,34.368A11.123,11.123,0,1,1,42.929,23.245,11.122,11.122,0,0,1,54.052,34.368ZM23.464,84.419a2.781,2.781,0,0,1,0-5.561H62.393a2.781,2.781,0,0,1,0,5.561Zm-2.781,8.342a2.781,2.781,0,0,0,2.781,2.781H51.271a2.781,2.781,0,0,0,0-5.561H23.464A2.781,2.781,0,0,0,20.684,92.761Z" transform="translate(-4 -1)" fill="#fff" fill-rule="evenodd"/>
</svg>
