<svg xmlns="http://www.w3.org/2000/svg" width="24" height="24" viewBox="0 0 24 24">
  <g id="Group_67331" data-name="Group 67331" transform="translate(-4386 -2687.956)">
    <g id="Path_58019" data-name="Path 58019" transform="translate(4386 2687.956)" fill="#f8f8f8">
      <path d="M 12 23.75 C 8.861459732055664 23.75 5.91077995300293 22.52779006958008 3.691489934921265 20.30850982666016 C 1.472210049629211 18.08922004699707 0.25 15.13854026794434 0.25 12 C 0.25 10.31877040863037 0.6017000079154968 8.698800086975098 1.2953200340271 7.185100078582764 C 1.976310014724731 5.698959827423096 2.971869945526123 4.346109867095947 4.254360198974609 3.164099931716919 C 6.253779888153076 1.311990022659302 9.076780319213867 0.25 12 0.25 C 15.13854026794434 0.25 18.08922004699707 1.472210049629211 20.30850982666016 3.691489934921265 C 22.52779006958008 5.91077995300293 23.75 8.861459732055664 23.75 12 C 23.75 15.13854026794434 22.52779006958008 18.08922004699707 20.30850982666016 20.30850982666016 C 18.08922004699707 22.52779006958008 15.13854026794434 23.75 12 23.75 Z" stroke="none"/>
      <path d="M 12 0.5 C 9.139060020446777 0.5 6.377979278564453 1.5377197265625 4.423789978027344 3.347930908203125 C 3.165800094604492 4.507350921630859 2.189699172973633 5.833400726318359 1.522590637207031 7.289239883422852 C 0.8440494537353516 8.770039558410645 0.5 10.35496044158936 0.5 12 C 0.5 15.0717601776123 1.696210861206055 17.95967102050781 3.868270874023438 20.13172912597656 C 6.04033088684082 22.30378913879395 8.928239822387695 23.5 12 23.5 C 15.0717601776123 23.5 17.95967102050781 22.30378913879395 20.13172912597656 20.13172912597656 C 22.30378913879395 17.95967102050781 23.5 15.0717601776123 23.5 12 C 23.5 8.928239822387695 22.30378913879395 6.04033088684082 20.13172912597656 3.868270874023438 C 17.95967102050781 1.696210861206055 15.0717601776123 0.5 12 0.5 M 12 0 C 18.62742042541504 0 24 5.372579574584961 24 12 C 24 18.62742042541504 18.62742042541504 24 12 24 C 5.372579574584961 24 0 18.62742042541504 0 12 C 0 8.513979911804199 1.486459732055664 5.375139236450195 4.084930419921875 2.980270385742188 C 5.999139785766602 1.207090377807617 8.858599662780762 0 12 0 Z" stroke="none" fill="#1a2e37"/>
    </g>
    <path id="Path_57612" data-name="Path 57612" d="M7.984,13.967a5.984,5.984,0,1,1,5.984-5.984A5.984,5.984,0,0,1,7.984,13.967Zm0-.6A5.385,5.385,0,1,0,2.6,7.984,5.385,5.385,0,0,0,7.984,13.369Zm2.338-3.715a.3.3,0,0,0-.07-.417L8.244,7.8,7.375,4.614a.3.3,0,0,0-.577.157l.9,3.291a.3.3,0,0,0,.115.165L9.9,9.723A.3.3,0,0,0,10.321,9.653Z" transform="translate(4390.017 2692.016)" fill-rule="evenodd"/>
  </g>
</svg>
