<svg xmlns="http://www.w3.org/2000/svg" width="16" height="16" viewBox="0 0 16 16">
  <path id="Path_57800" data-name="Path 57800" d="M15.078,12.941l3.457,1.571A2.5,2.5,0,0,1,20,16.788V17.5A2.5,2.5,0,0,1,17.5,20H6.5A2.5,2.5,0,0,1,4,17.5v-.712a2.5,2.5,0,0,1,1.465-2.276l3.457-1.571a5,5,0,1,1,6.156,0Zm-5.117.626L5.879,15.422A1.5,1.5,0,0,0,5,16.788V17.5A1.5,1.5,0,0,0,6.5,19h11A1.5,1.5,0,0,0,19,17.5v-.712a1.5,1.5,0,0,0-.879-1.365l-4.082-1.856a5.014,5.014,0,0,1-4.077,0ZM16,9a4,4,0,1,1-4-4A4,4,0,0,1,16,9Z" transform="translate(-4 -4)" fill-rule="evenodd"/>
</svg>
