<svg xmlns="http://www.w3.org/2000/svg" width="18" height="18" viewBox="0 0 18 18">
  <path id="Path_58018" data-name="Path 58018" d="M2,11a9,9,0,1,1,9,9A9,9,0,0,1,2,11Zm11.77,2.647,3.111,1.414a2.248,2.248,0,0,1,.765.571,8.1,8.1,0,1,0-13.292,0,2.248,2.248,0,0,1,.765-.571L8.23,13.647a4.5,4.5,0,1,1,5.54,0ZM11,6.5a3.6,3.6,0,1,0,3.6,3.6A3.6,3.6,0,0,0,11,6.5Zm0,12.6a8.082,8.082,0,0,1-6.073-2.74,1.34,1.34,0,0,1,.565-.48l3.674-1.67a4.514,4.514,0,0,0,3.669,0l3.674,1.67a1.342,1.342,0,0,1,.564.48A8.08,8.08,0,0,1,11,19.1Z" transform="translate(-2 -2)" fill-rule="evenodd"/>
</svg>
