<svg xmlns="http://www.w3.org/2000/svg" width="20" height="18" viewBox="0 0 20 18">
  <path id="Path_57998" data-name="Path 57998" d="M4.5,3h15A2.5,2.5,0,0,1,22,5.5v13A2.5,2.5,0,0,1,19.5,21H4.5A2.5,2.5,0,0,1,2,18.5V5.5A2.5,2.5,0,0,1,4.5,3ZM21,8.5A2.488,2.488,0,0,0,19.5,8h-.55A2.5,2.5,0,0,0,16.5,6h-9A2.5,2.5,0,0,0,5.05,8H4.5A1.5,1.5,0,0,1,3,6.5v-1A1.5,1.5,0,0,1,4.5,4h15A1.5,1.5,0,0,1,21,5.5ZM6.085,8A1.5,1.5,0,0,1,7.5,7h9a1.5,1.5,0,0,1,1.415,1ZM17.5,12H21V10.5A1.5,1.5,0,0,0,19.5,9H4.5A2.488,2.488,0,0,1,3,8.5v10A1.5,1.5,0,0,0,4.5,20h15A1.5,1.5,0,0,0,21,18.5V17H17.5a2.5,2.5,0,0,1,0-5ZM21,16H17.5a1.5,1.5,0,0,1,0-3H21Z" transform="translate(-2 -3)" fill-rule="evenodd"/>
</svg>
